<svg height="1550" width="720" xmlns="http://www.w3.org/2000/svg">
<rect height="1550" fill="#555" width="720"></rect>
<text fill="#7f7" font-family="Courier New" font-size="12" xml:space="preserve">
<tspan x="10" y="26">33 megabytes installed</tspan>
<tspan x="10" y="42"></tspan>
<tspan x="10" y="58">node_modules</tspan>
<tspan x="10" y="74">└─┬ yuidocjs@0.10.2 </tspan>
<tspan x="10" y="90">  ├─┬ express@4.15.2 </tspan>
<tspan x="10" y="106">  │ ├─┬ accepts@1.3.3 </tspan>
<tspan x="10" y="122">  │ │ ├─┬ mime-types@2.1.15 </tspan>
<tspan x="10" y="138">  │ │ │ └── mime-db@1.27.0 </tspan>
<tspan x="10" y="154">  │ │ └── negotiator@0.6.1 </tspan>
<tspan x="10" y="170">  │ ├── array-flatten@1.1.1 </tspan>
<tspan x="10" y="186">  │ ├── content-disposition@0.5.2 </tspan>
<tspan x="10" y="202">  │ ├── content-type@1.0.2 </tspan>
<tspan x="10" y="218">  │ ├── cookie@0.3.1 </tspan>
<tspan x="10" y="234">  │ ├── cookie-signature@1.0.6 </tspan>
<tspan x="10" y="250">  │ ├─┬ debug@2.6.1 </tspan>
<tspan x="10" y="266">  │ │ └── ms@0.7.2 </tspan>
<tspan x="10" y="282">  │ ├── depd@1.1.0 </tspan>
<tspan x="10" y="298">  │ ├── encodeurl@1.0.1 </tspan>
<tspan x="10" y="314">  │ ├── escape-html@1.0.3 </tspan>
<tspan x="10" y="330">  │ ├── etag@1.8.0 </tspan>
<tspan x="10" y="346">  │ ├─┬ finalhandler@1.0.2 </tspan>
<tspan x="10" y="362">  │ │ ├─┬ debug@2.6.4 </tspan>
<tspan x="10" y="378">  │ │ │ └── ms@0.7.3 </tspan>
<tspan x="10" y="394">  │ │ └── unpipe@1.0.0 </tspan>
<tspan x="10" y="410">  │ ├── fresh@0.5.0 </tspan>
<tspan x="10" y="426">  │ ├── merge-descriptors@1.0.1 </tspan>
<tspan x="10" y="442">  │ ├── methods@1.1.2 </tspan>
<tspan x="10" y="458">  │ ├─┬ on-finished@2.3.0 </tspan>
<tspan x="10" y="474">  │ │ └── ee-first@1.1.1 </tspan>
<tspan x="10" y="490">  │ ├── parseurl@1.3.1 </tspan>
<tspan x="10" y="506">  │ ├── path-to-regexp@0.1.7 </tspan>
<tspan x="10" y="522">  │ ├─┬ proxy-addr@1.1.4 </tspan>
<tspan x="10" y="538">  │ │ ├── forwarded@0.1.0 </tspan>
<tspan x="10" y="554">  │ │ └── ipaddr.js@1.3.0 </tspan>
<tspan x="10" y="570">  │ ├── qs@6.4.0 </tspan>
<tspan x="10" y="586">  │ ├── range-parser@1.2.0 </tspan>
<tspan x="10" y="602">  │ ├─┬ send@0.15.1 </tspan>
<tspan x="10" y="618">  │ │ ├── destroy@1.0.4 </tspan>
<tspan x="10" y="634">  │ │ ├── http-errors@1.6.1 </tspan>
<tspan x="10" y="650">  │ │ └── mime@1.3.4 </tspan>
<tspan x="10" y="666">  │ ├── serve-static@1.12.1 </tspan>
<tspan x="10" y="682">  │ ├── setprototypeof@1.0.3 </tspan>
<tspan x="10" y="698">  │ ├── statuses@1.3.1 </tspan>
<tspan x="10" y="714">  │ ├─┬ type-is@1.6.15 </tspan>
<tspan x="10" y="730">  │ │ └── media-typer@0.3.0 </tspan>
<tspan x="10" y="746">  │ ├── utils-merge@1.0.0 </tspan>
<tspan x="10" y="762">  │ └── vary@1.1.1 </tspan>
<tspan x="10" y="778">  ├── graceful-fs@4.1.11 </tspan>
<tspan x="10" y="794">  ├─┬ markdown-it@4.4.0 </tspan>
<tspan x="10" y="810">  │ ├─┬ argparse@1.0.9 </tspan>
<tspan x="10" y="826">  │ │ └── sprintf-js@1.0.3 </tspan>
<tspan x="10" y="842">  │ ├── entities@1.1.1 </tspan>
<tspan x="10" y="858">  │ ├── linkify-it@1.2.4 </tspan>
<tspan x="10" y="874">  │ ├── mdurl@1.0.1 </tspan>
<tspan x="10" y="890">  │ └── uc.micro@1.0.3 </tspan>
<tspan x="10" y="906">  ├── mdn-links@0.1.0 </tspan>
<tspan x="10" y="922">  ├─┬ minimatch@3.0.3 </tspan>
<tspan x="10" y="938">  │ └─┬ brace-expansion@1.1.7 </tspan>
<tspan x="10" y="954">  │   ├── balanced-match@0.4.2 </tspan>
<tspan x="10" y="970">  │   └── concat-map@0.0.1 </tspan>
<tspan x="10" y="986">  ├─┬ rimraf@2.6.1 </tspan>
<tspan x="10" y="1002">  │ └─┬ glob@7.1.1 </tspan>
<tspan x="10" y="1018">  │   ├── fs.realpath@1.0.0 </tspan>
<tspan x="10" y="1034">  │   ├─┬ inflight@1.0.6 </tspan>
<tspan x="10" y="1050">  │   │ └── wrappy@1.0.2 </tspan>
<tspan x="10" y="1066">  │   ├── inherits@2.0.3 </tspan>
<tspan x="10" y="1082">  │   ├── once@1.4.0 </tspan>
<tspan x="10" y="1098">  │   └── path-is-absolute@1.0.1 </tspan>
<tspan x="10" y="1114">  └─┬ yui@3.18.1 </tspan>
<tspan x="10" y="1130">    └─┬ request@2.40.0 </tspan>
<tspan x="10" y="1146">      ├── aws-sign2@0.5.0 </tspan>
<tspan x="10" y="1162">      ├── forever-agent@0.5.2 </tspan>
<tspan x="10" y="1178">      ├─┬ form-data@0.1.4 </tspan>
<tspan x="10" y="1194">      │ ├── async@0.9.2 </tspan>
<tspan x="10" y="1210">      │ ├─┬ combined-stream@0.0.7 </tspan>
<tspan x="10" y="1226">      │ │ └── delayed-stream@0.0.5 </tspan>
<tspan x="10" y="1242">      │ └── mime@1.2.11 </tspan>
<tspan x="10" y="1258">      ├─┬ hawk@1.1.1 </tspan>
<tspan x="10" y="1274">      │ ├── boom@0.4.2 </tspan>
<tspan x="10" y="1290">      │ ├── cryptiles@0.2.2 </tspan>
<tspan x="10" y="1306">      │ ├── hoek@0.9.1 </tspan>
<tspan x="10" y="1322">      │ └── sntp@0.2.4 </tspan>
<tspan x="10" y="1338">      ├─┬ http-signature@0.10.1 </tspan>
<tspan x="10" y="1354">      │ ├── asn1@0.1.11 </tspan>
<tspan x="10" y="1370">      │ ├── assert-plus@0.1.5 </tspan>
<tspan x="10" y="1386">      │ └── ctype@0.5.3 </tspan>
<tspan x="10" y="1402">      ├── json-stringify-safe@5.0.1 </tspan>
<tspan x="10" y="1418">      ├── mime-types@1.0.2 </tspan>
<tspan x="10" y="1434">      ├── node-uuid@1.4.8 </tspan>
<tspan x="10" y="1450">      ├── oauth-sign@0.3.0 </tspan>
<tspan x="10" y="1466">      ├── qs@1.0.2 </tspan>
<tspan x="10" y="1482">      ├── stringstream@0.0.5 </tspan>
<tspan x="10" y="1498">      ├─┬ tough-cookie@2.3.2 </tspan>
<tspan x="10" y="1514">      │ └── punycode@1.4.1 </tspan>
<tspan x="10" y="1530">      └── tunnel-agent@0.4.3</tspan>
</text>
</svg>
